<?xml version="1.0" encoding="iso-8859-1"?>
<!-- Generator: Adobe Illustrator 16.0.0, SVG Export Plug-In . SVG Version: 6.00 Build 0)  -->
<!DOCTYPE svg PUBLIC "-//W3C//DTD SVG 1.1//EN" "http://www.w3.org/Graphics/SVG/1.1/DTD/svg11.dtd">
<svg version="1.1" id="Capa_1" xmlns="http://www.w3.org/2000/svg" xmlns:xlink="http://www.w3.org/1999/xlink" x="0px" y="0px"
	 width="636.836px" height="636.836px" viewBox="0 0 636.836 636.836" style="enable-background:new 0 0 636.836 636.836;"
	 xml:space="preserve">
<g>
	<g>
		<path d="M397.396,494.5c-0.429,0.409-0.856,0.856-1.284,1.118c0.137,0,0.137,0,0.272,0
			C396.695,495.19,397.104,494.909,397.396,494.5L397.396,494.5L397.396,494.5z"/>
		<path d="M191.479,177.511c0,0,0,0,0,0.01S191.479,177.521,191.479,177.511L191.479,177.511L191.479,177.511z M191.382,174.871
			h-0.122c0.122,0.915,0.122,1.833,0.219,2.64C191.382,176.704,191.382,175.785,191.382,174.871L191.382,174.871L191.382,174.871z"
			/>
		<path d="M369.291,153.015L369.291,153.015L369.291,153.015L369.291,153.015L369.291,153.015z M369.194,150.754h-0.098
			c0.098,0.793,0.098,1.57,0.194,2.261C369.194,152.314,369.194,151.547,369.194,150.754L369.194,150.754L369.194,150.754z"/>
		<g>
			<path d="M427.443,361.129c-0.359,0.321-0.689,0.681-1.05,0.914c0.155,0,0.155,0,0.253,0
				C426.86,361.712,427.182,361.45,427.443,361.129L427.443,361.129L427.443,361.129z"/>
			<path d="M195.252,381.492c-18.102-4.774-34.396-14.198-47.377-26.918c-0.141,0-0.141,0-0.141,0s-0.525-0.524-1.711-1.75
				c-1.045-1.031-2.509-2.606-4.342-4.843c-1.853-2.256-4.094-4.901-6.593-8.188c-0.788-1.03-1.722-2.236-2.65-3.442
				c-17.902-23.951-46.512-70.853-54.958-135.18c0-0.253-0.116-0.521-0.116-0.9c-0.647-4.876-1.177-9.749-1.454-14.883
				c-0.141-0.661-0.141-1.604-0.141-2.383c-0.127-1.701-0.127-3.442-0.127-5.139c0-81.424,66.02-147.443,147.443-147.443
				c81.554,0,147.559,66.02,147.559,147.443c0,1.696,0,3.438-0.106,5.139c0,0,0,2.242-0.389,6.443
				c-0.137,1.716-0.39,3.564-0.574,5.927c-0.359,1.979-0.524,4.21-1.06,6.86v0.666c-4.046,26.606-15.646,76.157-49.901,125.407
				c0,0.146,0,0.233-0.142,0.39c-6.603,9.374-14.109,18.875-22.273,28.094c-0.398,0.389-0.637,0.642-1.036,0.934
				c-11.762,10.443-25.77,18.379-41.227,22.969C226.701,393.122,195.252,381.492,195.252,381.492L195.252,381.492z M399.885,620.199
				c0,0,0.895-5.29-5.718-25.575c-10.581-37.498-56.014-63.073-82.469-63.073c-67.882-1.265-71.646-45.56-71.864-50.46h18.341
				c0,0,17.888-0.273,10.687-15.979c0-0.038-0.02-0.038-0.029-0.058l-23.154-50.489c23.533-4.162,44.883-14.85,62.066-30.176
				c0.472-0.281,0.769-0.612,1.216-1.06c9.622-10.833,18.438-21.987,26.148-32.976c0.166-0.166,0.166-0.292,0.166-0.477
				c40.221-57.852,53.873-116.048,58.648-147.297v-0.802c0.632-3.097,0.807-5.708,1.244-8.047c0.186-2.762,0.467-4.94,0.613-6.943
				c0.467-4.969,0.467-7.585,0.467-7.585c0.155-2.013,0.155-4.026,0.155-6.034C396.403,77.523,318.89,0,223.113,0
				C127.478,0,49.958,77.523,49.958,173.159c0,2.008,0,4.021,0.136,6.034c0,0.914,0,2.022,0.17,2.786
				c0.302,6.034,0.948,11.742,1.717,17.479c0,0.457,0.136,0.773,0.136,1.075c9.899,75.521,43.498,130.625,64.527,158.757
				c1.099,1.43,2.183,2.82,3.106,4.064c2.917,3.86,5.567,6.934,7.717,9.589c2.173,2.635,3.885,4.463,5.129,5.708
				c1.386,1.42,1.984,2.042,1.984,2.042s0,0,0.17,0c17.636,17.3,40.537,29.368,65.928,33.861l-19.746,45.394
				c-8.611,19.818,10.328,21.142,10.328,21.142h20.456c12.068,75.967,67.425,76.93,92.494,77.62
				c63.516,7.294,68.349,59.728,68.349,67.663c1.771,5.737,4.853,11.902,17.213,10.162
				C402.082,634.747,399.885,620.199,399.885,620.199L399.885,620.199z"/>
			<path d="M454.167,72.044c-17.476,0-34.046,3.646-49.304,9.831c-7.176,3.842-4.823,12.992-4.823,12.992l1.226,2.811v-0.01
				c0,0,0.039,0.088,0.039,0.116l0.146,0.312c0.778,1.624,4.493,7.366,17.728,2.908c0.545-0.19,0.934-0.181,1.459-0.302
				c10.609-3.355,21.832-5.334,33.579-5.334c62.44,0,112.988,50.543,112.988,112.892c0,1.312,0,2.616-0.077,3.943
				c0,0,0,1.702-0.312,4.94c-0.097,1.303-0.292,2.728-0.408,4.551c-0.302,1.512-0.39,3.224-0.817,5.236v0.525
				c-3.121,20.368-11.99,58.308-38.217,96.039c0,0.117,0,0.194-0.098,0.292c-5.066,7.177-10.794,14.45-17.047,21.501
				c-0.32,0.311-0.535,0.496-0.836,0.719c-8.977,7.994-19.712,14.092-31.527,17.592c-20.897,9.501-44.995,0.613-44.995,0.613
				c-13.887-3.686-26.354-10.882-36.292-20.626c-0.116,0-0.116,0-0.116,0s-0.39-0.428-1.294-1.322
				c-0.826-0.837-1.935-2.022-3.335-3.734c-1.128-1.42-2.606-3.199-4.085-5.076c-0.028-0.059-0.077-0.059-0.106-0.117
				c-8.801-10.162-16.211-0.077-16.269,0l-1.245,2.198c-0.02,0.049-2.47,4.745,1.04,9.607c0.467,0.661,1.002,1.439,1.449,2.042
				c0.816,1.07,1.653,2.159,2.373,3.083c2.236,2.985,4.259,5.339,5.912,7.361s2.956,3.423,3.938,4.356
				c1.04,1.089,1.507,1.575,1.507,1.575s0,0,0.146,0c13.488,13.265,31.031,22.503,50.461,25.945l-15.112,34.736
				c-5.29,12.185,2.868,15.18,6.379,15.938h54.982c3.637-0.65,10.036-3.102,5.951-11.961c0-0.02,0-0.02,0-0.058l-17.708-38.655
				c18-3.219,34.337-11.406,47.504-23.105c0.36-0.253,0.604-0.486,0.934-0.816c7.371-8.305,14.12-16.844,20.062-25.265
				c0.107-0.146,0.107-0.233,0.107-0.351c30.808-44.329,41.251-88.872,44.927-112.799v-0.607c0.467-2.368,0.604-4.381,0.934-6.175
				c0.137-2.12,0.351-3.773,0.467-5.314c0.351-3.797,0.351-5.815,0.351-5.815c0.146-1.527,0.146-3.088,0.146-4.605
				C586.896,131.402,527.528,72.044,454.167,72.044L454.167,72.044z"/>
		</g>
	</g>
</g>
<g>
</g>
<g>
</g>
<g>
</g>
<g>
</g>
<g>
</g>
<g>
</g>
<g>
</g>
<g>
</g>
<g>
</g>
<g>
</g>
<g>
</g>
<g>
</g>
<g>
</g>
<g>
</g>
<g>
</g>
</svg>
